<?xml version="1.0" encoding="UTF-8"?>
<svg width="16px" height="16px" viewBox="0 0 16 16" version="1.1" xmlns="http://www.w3.org/2000/svg" xmlns:xlink="http://www.w3.org/1999/xlink">
    <title>分享 (1)</title>
    <g id="最新" stroke="none" stroke-width="1" fill="none" fill-rule="evenodd">
        <g id="Group-8" transform="translate(-211.000000, -169.000000)" fill="#999999" fill-rule="nonzero">
            <g id="分享-(1)" transform="translate(211.000000, 169.000000)">
                <path d="M14.6635938,2.28931187 L7.7275,9.22540562 C7.56170876,9.39430766 7.31799648,9.46118685 7.08921875,9.40056187 C6.86046397,9.34000869 6.68180317,9.1613479 6.62125,8.93259312 C6.56070282,8.70381574 6.62757129,8.46014252 6.79640625,8.29431187 L13.7740625,1.31665562 L11.3373438,1.31665562 C11.1003451,1.31936177 10.8801886,1.19445323 10.7609375,0.989624367 C10.641721,0.784824874 10.641721,0.531767609 10.7609375,0.326968117 C10.8801568,0.122126905 11.100352,-0.0027438955 11.3373438,4.57831256e-05 L15.0826563,4.57831256e-05 C15.5782813,4.57831256e-05 15.9803125,0.401968117 15.9803125,0.897749367 L15.9803125,4.64696812 C15.97625,5.00774937 15.6828125,5.29790562 15.3220313,5.29790562 C14.96125,5.29790562 14.6678125,5.00759312 14.6635938,4.64696812 L14.6635938,2.28931187 Z M14.6435938,9.45024937 C14.6435938,9.08649937 14.9382813,8.79181187 15.3020313,8.79181187 C15.665625,8.79181187 15.9604688,9.08649937 15.9604688,9.45024937 L15.9604688,15.0025931 C15.9604688,15.5425931 15.5228125,15.9802494 14.9828125,15.9802494 L0.97765625,15.9802494 C0.43765625,15.9802494 0,15.5425931 0,15.0025931 L0,0.997436867 C0,0.457593117 0.43765625,0.0197806166 0.97765625,0.0197806166 L6.53640625,0.0197806166 C6.9,0.0197806166 7.19484375,0.314468117 7.19484375,0.678061867 C7.19484375,1.04181187 6.9,1.33649937 6.53640625,1.33649937 L1.31671875,1.33649937 L1.31671875,14.6635306 L14.6435937,14.6635306 L14.6435938,9.45024937 Z" id="Shape"></path>
            </g>
        </g>
    </g>
</svg>